<svg width="626" height="79" viewBox="0 0 626 79" fill="none" xmlns="http://www.w3.org/2000/svg">
<path d="M0.564453 39.3759C0.564453 26.4238 4.51243 16.6231 12.4084 9.97384C20.3736 3.32461 31.6635 0 46.2779 0C59.8534 0 70.5199 2.77051 78.2773 8.31153C86.104 13.7833 90.5715 21.7139 91.6797 32.1033H64.0438C63.4204 29.3328 61.6196 26.9432 58.6413 24.9346C55.663 22.8567 51.5419 21.8178 46.2779 21.8178C39.9057 21.8178 35.1959 23.4455 32.1483 26.7008C29.1007 29.8869 27.5769 34.1119 27.5769 39.3759C27.5769 44.7091 29.1007 49.0034 32.1483 52.2588C35.1959 55.5141 39.9057 57.1418 46.2779 57.1418C51.5419 57.1418 55.663 56.1029 58.6413 54.025C61.6196 51.9471 63.4204 49.4883 64.0438 46.6485H91.6797C90.5715 57.1072 86.104 65.107 78.2773 70.6481C70.5199 76.1891 59.8534 78.9596 46.2779 78.9596C31.6635 78.9596 20.3736 75.635 12.4084 68.9857C4.51243 62.2673 0.564453 52.3973 0.564453 39.3759Z" fill="#16244B"/>
<path d="M229.383 76.8817H203.41V2.07788H243.928L264.292 46.6485L284.655 2.07788H325.174V76.8817H299.2V27.0125L276.343 76.8817H252.24L229.383 27.0125V76.8817Z" fill="#16244B"/>
<path d="M394.782 2.07788C404.133 2.07788 411.44 4.60598 416.704 9.66216C422.037 14.6491 424.704 21.5754 424.704 30.441C424.704 39.3066 422.037 46.2675 416.704 51.3237C411.44 56.3106 404.133 58.8041 394.782 58.8041H361.536V76.8817H335.562V2.07788H394.782ZM361.536 23.8957V36.9863H388.548C390.626 36.9863 392.254 36.8824 393.431 36.6746C394.678 36.4669 395.682 35.9128 396.444 35.0123C397.275 34.0427 397.691 32.5189 397.691 30.441C397.691 28.3631 397.275 26.874 396.444 25.9735C395.682 25.0039 394.678 24.4151 393.431 24.2073C392.254 23.9996 390.626 23.8957 388.548 23.8957H361.536Z" fill="#16244B"/>
<path d="M525.457 40.4148C525.457 53.2285 521.752 62.856 514.341 69.2974C506.999 75.7389 495.467 78.9596 479.744 78.9596C463.952 78.9596 452.385 75.7735 445.043 69.4013C437.701 62.9599 434.03 53.2977 434.03 40.4148V2.07788H460.004V39.3759C460.004 44.5706 461.459 48.8303 464.368 52.1549C467.346 55.4795 472.471 57.1418 479.744 57.1418C487.017 57.1418 492.107 55.4795 495.016 52.1549C497.995 48.761 499.484 44.5013 499.484 39.3759V2.07788H525.457V40.4148Z" fill="#16244B"/>
<path d="M558.675 52.2588C558.675 57.592 565.498 60.2586 579.142 60.2586C584.268 60.2586 588.146 60.0508 590.779 59.6353C593.48 59.1504 595.281 58.5271 596.181 57.7652C597.081 57.0033 597.532 56.0336 597.532 54.8561C597.532 53.4016 597.047 52.3627 596.077 51.7393C595.107 51.0467 593.203 50.4926 590.363 50.077C587.523 49.5922 582.744 49.1073 576.026 48.6225C565.844 47.8606 557.602 46.5446 551.299 44.6745C545.065 42.8044 540.39 40.1378 537.273 36.6746C534.225 33.2115 532.702 28.7094 532.702 23.1684C532.702 15.688 536.476 9.97384 544.026 6.02586C551.576 2.00862 561.896 0 574.987 0C589.67 0 600.925 2.18178 608.752 6.54533C616.648 10.8396 620.873 17.1425 621.427 25.4541H594.415C594.415 23.0299 592.856 21.2983 589.74 20.2594C586.623 19.2204 581.705 18.701 574.987 18.701C569.099 18.701 565.082 19.1165 562.935 19.9477C560.788 20.7096 559.714 21.8178 559.714 23.2723C559.714 24.4498 560.199 25.3848 561.169 26.0774C562.138 26.7008 564.043 27.2549 566.883 27.7397C569.792 28.2246 574.225 28.7441 580.181 29.2982C590.986 30.1986 599.332 31.3068 605.22 32.6228C611.107 33.8695 615.782 36.1205 619.245 39.3759C622.778 42.6312 624.544 47.445 624.544 53.8172C624.544 62.8906 620.804 69.3667 613.323 73.2454C605.843 77.0549 594.796 78.9596 580.181 78.9596C564.597 78.9596 552.719 76.8817 544.546 72.7259C536.442 68.5702 532.147 61.7478 531.663 52.2588H558.675Z" fill="#16244B"/>
<path fill-rule="evenodd" clip-rule="evenodd" d="M197.671 76.383H170.036L143.335 19.449L116.634 76.383H88.998L124.842 1.57919H161.828L197.671 76.383ZM143.48 45.7966L131.636 75.8012H155.324L143.48 45.7966Z" fill="#16244B"/>
</svg>
