<svg width="415" height="53" viewBox="0 0 415 53" fill="none" xmlns="http://www.w3.org/2000/svg">
<path d="M0.123047 26.0936C0.123047 17.5105 2.73929 11.0158 7.97178 6.60946C13.2502 2.20315 20.7317 0 30.4164 0C39.4126 0 46.4811 1.83596 51.6218 5.50788C56.8083 9.1339 59.7688 14.3893 60.5032 21.2742H42.1895C41.7764 19.4382 40.583 17.8547 38.6094 16.5236C36.6357 15.1467 33.9047 14.4582 30.4164 14.4582C26.1937 14.4582 23.0726 15.5368 21.053 17.6941C19.0334 19.8054 18.0237 22.6053 18.0237 26.0936C18.0237 29.6278 19.0334 32.4736 21.053 34.6308C23.0726 36.7881 26.1937 37.8667 30.4164 37.8667C33.9047 37.8667 36.6357 37.1782 38.6094 35.8012C40.583 34.4243 41.7764 32.7949 42.1895 30.913H60.5032C59.7688 37.8437 56.8083 43.1451 51.6218 46.817C46.4811 50.4889 39.4126 52.3249 30.4164 52.3249C20.7317 52.3249 13.2502 50.1217 7.97178 45.7154C2.73929 41.2632 0.123047 34.7226 0.123047 26.0936Z" fill="white"/>
<path d="M151.757 50.9479H134.544V1.37697H161.395L174.89 30.913L188.384 1.37697H215.235V50.9479H198.023V17.9006L182.876 50.9479H166.903L151.757 17.9006V50.9479Z" fill="white"/>
<path d="M261.363 1.37697C267.559 1.37697 272.402 3.05228 275.89 6.40291C279.424 9.70764 281.191 14.2975 281.191 20.1726C281.191 26.0477 279.424 30.6605 275.89 34.0112C272.402 37.3159 267.559 38.9683 261.363 38.9683H239.331V50.9479H222.119V1.37697H261.363ZM239.331 15.8352V24.5101H257.232C258.609 24.5101 259.688 24.4412 260.468 24.3035C261.294 24.1658 261.96 23.7986 262.464 23.202C263.015 22.5594 263.291 21.5496 263.291 20.1726C263.291 18.7956 263.015 17.8088 262.464 17.2121C261.96 16.5695 261.294 16.1794 260.468 16.0417C259.688 15.904 258.609 15.8352 257.232 15.8352H239.331Z" fill="white"/>
<path d="M347.959 26.7821C347.959 35.2734 345.503 41.6534 340.592 45.922C335.727 50.1906 328.085 52.3249 317.665 52.3249C307.2 52.3249 299.535 50.2135 294.67 45.9908C289.805 41.7222 287.372 35.3193 287.372 26.7821V1.37697H304.584V26.0936C304.584 29.536 305.548 32.3588 307.476 34.562C309.449 36.7651 312.846 37.8667 317.665 37.8667C322.485 37.8667 325.858 36.7651 327.786 34.562C329.76 32.3129 330.747 29.4901 330.747 26.0936V1.37697H347.959V26.7821Z" fill="white"/>
<path d="M369.971 34.6308C369.971 38.165 374.493 39.9322 383.535 39.9322C386.931 39.9322 389.502 39.7945 391.246 39.5191C393.036 39.1978 394.229 38.7847 394.826 38.2798C395.422 37.7749 395.721 37.1323 395.721 36.352C395.721 35.3881 395.4 34.6997 394.757 34.2866C394.114 33.8276 392.852 33.4604 390.97 33.185C389.088 32.8637 385.921 32.5424 381.469 32.2211C374.722 31.7162 369.26 30.8441 365.083 29.6049C360.952 28.3656 357.854 26.5985 355.789 24.3035C353.769 22.0086 352.759 19.0251 352.759 15.3532C352.759 10.3961 355.261 6.60946 360.264 3.99321C365.267 1.33107 372.106 0 380.781 0C390.511 0 397.97 1.44582 403.156 4.33746C408.389 7.1832 411.189 11.36 411.556 16.8679H393.655C393.655 15.2614 392.623 14.1139 390.557 13.4255C388.492 12.737 385.233 12.3927 380.781 12.3927C376.879 12.3927 374.217 12.6681 372.794 13.2189C371.371 13.7238 370.66 14.4582 370.66 15.4221C370.66 16.2024 370.981 16.822 371.624 17.281C372.266 17.6941 373.529 18.0613 375.411 18.3826C377.338 18.7039 380.276 19.0481 384.223 19.4153C391.383 20.012 396.914 20.7464 400.816 21.6184C404.717 22.4446 407.815 23.9363 410.11 26.0936C412.451 28.2508 413.621 31.4408 413.621 35.6635C413.621 41.6763 411.143 45.9679 406.186 48.5382C401.229 51.0627 393.908 52.3249 384.223 52.3249C373.896 52.3249 366.024 50.9479 360.608 48.194C355.238 45.44 352.392 40.919 352.071 34.6308H369.971Z" fill="white"/>
<path fill-rule="evenodd" clip-rule="evenodd" d="M130.742 50.6174H112.428L94.7343 12.8884L77.0403 50.6174H58.7266L82.4793 1.04648H106.989L130.742 50.6174ZM94.8307 30.3484L86.982 50.2319H102.679L94.8307 30.3484Z" fill="white"/>
</svg>
