<svg width="1656" height="245" viewBox="0 0 1656 245" fill="none" xmlns="http://www.w3.org/2000/svg">
<path fill-rule="evenodd" clip-rule="evenodd" d="M42.9417 31.8066L41.1351 33.6133L40.6144 36.328L40.0928 39.0427L38.9829 46.0655L37.8721 53.0883L36.9897 51.7767L36.1083 50.465L34.1865 46.827L32.2657 43.188L29.2445 41.9182L26.2242 40.6485L23.7037 41.9515L21.1822 43.2556L20.5911 44.7967L20 46.3377V48.3328V50.3279L28.2574 64.4992L36.5157 78.6705L38.4271 80.0098L40.3393 81.349L42.7818 80.7712L45.2243 80.1925L46.7653 78.859L48.3055 77.5244L49.5181 70.1818L50.7298 62.8392L53.02 70.454L55.3092 78.0689L57.3138 83.1528L59.3175 88.2367L61.4811 89.2228L63.6456 90.2089L66.0833 89.5969L68.521 88.9848L69.9012 86.8584L71.2814 84.7319L72.3713 74.2615L73.4612 63.791L73.9314 62.3632L74.4016 60.9354L76.0255 64.2669L77.6503 67.5985L78.9753 70.93L80.2994 74.2615L82.1022 76.8791L83.9041 79.4967H86.6416H89.3792L91.7493 77.355L94.1185 75.2133L96.0488 64.7429L97.9792 54.2724L98.9891 47.8255L100 41.3785L98.9682 39.451L97.9364 37.5235L95.651 36.6544L93.3646 35.7854L90.6042 36.7477L87.8447 37.7101L86.7615 40.0869L85.6783 42.4636L85.664 44.5606L85.6488 46.6575L84.8416 47.9321L84.0335 49.2066L80.6506 43.1585L77.2686 37.1104L74.8557 34.5071L72.4427 31.9037L69.7804 31.9342L67.1171 31.9646L65.4151 33.2554L63.7142 34.5451L62.7975 37.7396L61.8818 40.934V44.5092V48.0853H60.93H59.9781L59.9772 46.8955L59.9762 45.7057L57.0511 39.5186L54.1261 33.3315L52.6212 31.6658L51.1163 30H47.9323H44.7484L42.9417 31.8066Z" fill="black"/>
<path fill-rule="evenodd" clip-rule="evenodd" d="M139.714 27.4908L135.367 28.8971L130.962 30.9967L126.558 33.0954L123.571 36.0692L120.583 39.043L118.292 43.5653L116 48.0884L116.019 57.0035L116.037 65.9194L117.855 70.267L119.673 74.6147L122.864 79.6066L126.055 84.5977L131.259 88.392L136.463 92.1855L141.587 93.4732L146.711 94.7601L151.71 94.3001L156.71 93.8408L161.845 92.2005L166.98 90.5611L171.055 86.3881L175.129 82.2144L176.559 78.0193L177.988 73.8242L177.983 67.5003L177.979 61.1765L175.919 57.2051L173.86 53.2345L167.656 50.0908L161.453 46.9478L155.524 47.0031L149.596 47.0577L145.248 49.1572L140.9 51.2559L139.031 54.0265L137.16 56.7972L137.115 60.5678L137.069 64.3384L138.688 67.9707L140.307 71.6021L142.137 73.3064L143.965 75.0099H145.433H146.901L148.917 72.9934L150.934 70.9769L150.4 65.6688L149.867 60.3607L151.568 58.1995L153.267 56.0383H156.703H160.138L161.792 58.7141L163.446 61.3899L164.324 65.7621L165.201 70.1342L163.29 73.5602L161.378 76.9861L161.058 77.7766L160.662 78.1718L160.267 78.5671L159.492 79.4635L157.705 81.1362L155.919 82.8096L153.584 83.6949L151.248 84.5795L148.05 84.0973L144.853 83.6143L139.924 81.9369L134.995 80.2595L133.017 78.1948L131.039 76.1292L129.448 69.9097L127.857 63.6902L127.862 59.2714L127.866 54.8526L128.651 52.0274L129.436 49.2015L131.257 47.4909L133.078 45.7795L139.206 42.6088L145.333 39.4382H151.465H157.598L163.784 41.0587L169.97 42.6784L173.221 44.3147L176.472 45.951L183.981 51.2868L191.491 56.6225L193.338 57.5806L195.183 58.5378L195.592 58.1299L196 57.7221L194.625 53.5207L193.251 49.3192L191.673 46.1573L190.095 42.9954L187.76 40.0287L185.426 37.0612L177.391 33.2147L169.358 29.3675L167.147 28.8449L164.936 28.3232L156.13 27.1612L147.324 26L145.694 26.0427L144.062 26.0854L139.714 27.4908Z" fill="black"/>
<path fill-rule="evenodd" clip-rule="evenodd" d="M37.842 162.205L37.274 165.409L36.637 170.458L36 175.507L49.677 177.616L63.354 179.725L63.83 180.202L64.307 180.679L62.719 192.044L61.131 203.409L60.671 205.569L60.211 207.729L67.113 208.962L74.015 210.196L75.417 209.658L76.819 209.12L80.105 187.941L83.391 166.762L82.831 166.203L82.271 165.643L73.488 164.297L64.704 162.951L54.204 161.397L43.704 159.842L41.057 159.421L38.409 159L37.842 162.205Z" fill="black"/>
<path fill-rule="evenodd" clip-rule="evenodd" d="M132 185.012V203.025L135.25 203.014L138.5 203.003L141.818 197.264L145.135 191.525L147.524 188.77L149.912 186.015L154.605 183.52L159.298 181.025L164.399 181.035L169.5 181.045L174.959 183.586L180.418 186.127L184.844 189.753L189.269 193.38L191.181 197.702L193.094 202.025H198.57H204.047L203.774 184.775L203.5 167.525L167.75 167.262L132 167V185.012Z" fill="black"/>
<path fill-rule="evenodd" clip-rule="evenodd" d="M251.286 160.25L247.748 163.5L246.874 167.394L246 171.287L247.177 174.882L248.355 178.476L265.855 193.273L283.354 208.069L287.706 210.127L292.059 212.184L295.355 211.566L298.651 210.947L301.273 208.885L303.894 206.823L305.374 203.961L306.854 201.099V197.784V194.469L305.104 191.404L303.354 188.339L298.854 184.363L294.354 180.388L281.35 169.86L268.345 159.333L266.165 158.167L263.985 157H259.405H254.825L251.286 160.25Z" fill="black"/>
<path fill-rule="evenodd" clip-rule="evenodd" d="M356.732 172.018L356 172.9L356.44 174.286L356.879 175.671L358.947 176.932L361.016 178.193L362.737 178.195L364.459 178.198L368.78 176.571L373.101 174.945L374.588 175.622L376.076 176.3L378.612 180.217L381.148 184.135L382.327 184.765L383.505 185.396H385.43H387.354L391.126 183.728L394.897 182.06L396.765 182.47L398.632 182.881L401.418 187.051L404.203 191.222L405.706 191.907L407.209 192.594H409.127H411.045L414.596 190.853L418.146 189.111L420.009 189.9L421.871 190.688L424.453 194.539L427.035 198.39L428.574 199.091L430.112 199.792H431.359H432.606L434.303 199.019L436 198.246L435.806 196.892L435.613 195.538L433.977 195.355L432.341 195.172L430.876 194.854L429.412 194.536L428.153 192.093L426.893 189.649L424.507 187.359L422.121 185.069L418.724 185.189L415.327 185.31L412.383 186.647L409.438 187.985L408.612 187.999L407.786 188.013L405.582 184.578L403.379 181.143L402.155 180.08L400.932 179.018L398.419 178.21L395.907 177.404L394.006 177.784L392.106 178.164L389.355 179.493L386.604 180.821L385.588 180.495L384.573 180.17L382.332 176.877L380.091 173.583L378.002 172.292L375.912 171L372.717 171.022L369.522 171.044L366.905 172.309L364.287 173.573L362.895 173.595L361.503 173.617L360.747 172.707L359.991 171.796L358.728 171.465L357.465 171.135L356.732 172.018Z" fill="black"/>
<path fill-rule="evenodd" clip-rule="evenodd" d="M510.403 154.885L506.05 155.77L501.752 158.289L497.454 160.807L493.499 165.3L489.544 169.793L487.772 175.427L486 181.061L486.495 187.229L486.99 193.398L489.129 197.591L491.268 201.783L494.399 205.349L497.53 208.915L502.026 211.55L506.522 214.185L514.266 214.633L522.009 215.082L527.053 213.406L532.097 211.731L536.724 207.658L541.351 203.586L544.029 198.462L546.708 193.339L546.732 184.839L546.756 176.339L544.536 171.839L542.317 167.339L538.536 163.43L534.756 159.521L529.756 157.269L524.756 155.016L519.756 154.508L514.756 154L510.403 154.885Z" fill="black"/>
<path fill-rule="evenodd" clip-rule="evenodd" d="M261.379 25.5508L264.921 31.1016L273.058 42.0574L281.195 53.0132L280.724 53.4843L280.253 53.9554L273.66 54.8049L267.067 55.6554L262.16 55.6863L257.252 55.7182L256.669 56.3022L256.085 56.8853L265.287 69.0748L274.489 81.2634L275.819 83.8361L277.149 86.4087L272.108 88.7729L267.067 91.1361L261.033 93.4529L255 95.7708V96.6348V97.4988L256.689 98.7489L258.379 100L274.79 99.4575L291.201 98.9149L292.02 98.1687L292.841 97.4225L284.867 81.8417L276.893 66.2608L277.772 65.4538L278.651 64.6467L288.063 61.5508L297.476 58.4549V57.5543V56.6526L286.615 45.7653L275.755 34.8771L267.835 27.439L259.915 20H258.876H257.837L261.379 25.5508Z" fill="black"/>
<path fill-rule="evenodd" clip-rule="evenodd" d="M388.205 24.542L360.705 25.084L360.352 27.584L360 30.084L361.145 35.206L362.291 40.328L365.111 44.774L367.93 49.22L373.595 51.902L379.26 54.584H380.849H382.438L381.947 56.834L381.456 59.084L375.288 76.584L369.119 94.084L368.912 95.084L368.705 96.084L397.455 96.349L426.205 96.615V96.307V96L421.773 84.319L417.342 72.639L413.773 64.736L410.205 56.832V56.208V55.584H411.845H413.486L417.974 53.342L422.463 51.101L425.871 47.119L429.279 43.138L430.692 38.111L432.105 33.084L432.388 28.584L432.671 24.084L424.188 24.042L415.705 24L388.205 24.542Z" fill="black"/>
<path fill-rule="evenodd" clip-rule="evenodd" d="M493.247 30.2128L489.444 36.4256L484.711 44.5664L479.976 52.7073L477.988 56.3399L476 59.9724L476.367 60.2398L476.734 60.508L482.304 63.9949L487.874 67.4817L498.157 73.7219L508.44 79.9621L518.068 85.8347L527.695 91.7073L531.546 93.578L535.396 95.4487L535.701 95.0733L536.006 94.6971L546.003 77.6424L556 60.5868V59.6108V58.6347L551.501 56.3082L547.002 53.9824L531.149 44.3256L515.296 34.6688L506.531 29.3344L497.766 24H497.407H497.049L493.247 30.2128Z" fill="black"/>
<path fill-rule="evenodd" clip-rule="evenodd" d="M629.632 36.916L625.263 37.831L620.632 40.066L616 42.3L611.215 47.201L606.429 52.101L604.079 56.748L601.728 61.395L599.724 67.895L597.721 74.395L597.361 79.395L597 84.395H636H675L674.792 77.795L674.584 71.194L672.393 65.295L670.202 59.395L667.014 54.395L663.826 49.395L659.533 45.53L655.24 41.665L649.873 39.208L644.506 36.751L639.253 36.376L634 36L629.632 36.916Z" fill="black"/>
<path fill-rule="evenodd" clip-rule="evenodd" d="M769.148 24.7131L765.423 25.4254L763.044 26.5663L760.665 27.7064L759.852 30.0181L759.039 32.3307L762.821 38.3288L766.602 44.3268L765.363 43.3897L764.124 42.4526L760.097 39.2335L756.069 36.0144L753.534 36.0223L750.999 36.0311L746.535 38.5913L742.071 41.1515L740.967 43.8184L739.862 46.4854L740.418 49.4507L740.975 52.4169L743.024 56.4655L745.074 60.5141H744.737H744.399L740.834 58.1542L737.268 55.7952L729.697 55.44L722.125 55.0856L719.062 55.8967L716 56.7087L716.046 61.4555L716.093 66.2015L719.866 72.287L723.638 78.3725L730.757 86.8791L737.875 95.3858L738.872 95.4496L739.87 95.5135L767.935 67.8456L796 40.1776L793.277 36.1273L790.554 32.077L788.301 29.6384L786.048 27.2007L781.648 25.9967L777.249 24.7927L775.062 24.3963L772.874 24L769.148 24.7131Z" fill="black"/>
<path fill-rule="evenodd" clip-rule="evenodd" d="M879.939 21.161L875.799 22.3211L870.574 25.312L865.347 28.3029L860.834 33.2413L856.32 38.1798L853.912 43.2673L851.503 48.3548L850.752 55.5473L850 62.7406L850.733 67.8006L851.466 72.8605L854.165 78.6324L856.863 84.4044L861.732 89.2619L866.599 94.1195L872.496 97.0597L878.393 100H879.553H880.713L881.325 97.01L881.939 94.0201L883.699 88.1736L885.459 82.3262V81.9757V81.6252L882.009 80.1835L878.559 78.7429L875.944 76.2616L873.331 73.7804L871.422 70.1005L869.514 66.4206L869.468 60.9007L869.423 55.3808L871.196 51.7404L872.969 48.1L876.398 44.7733L879.826 41.4458L883.44 40.3639L887.052 39.281L892.006 39.2755L896.959 39.27L899.359 30.7657L901.76 22.2613L900.925 21.3413L900.089 20.4214L892.084 20.2107L884.079 20L879.939 21.161Z" fill="black"/>
<path fill-rule="evenodd" clip-rule="evenodd" d="M999.339 24.495L998.844 24.989L988.922 28.491L979 31.993L968 35.881L957 39.769L957.108 49.634L957.217 59.5L957.955 72.183L958.694 84.865L971.347 87.878L984 90.89L995.283 93.54L1006.57 96.19L1008 95.002L1009.43 93.814L1012.94 88.657L1016.46 83.5L1025.48 71.005L1034.5 58.509V57.504V56.498L1019.42 40.249L1004.35 24H1002.09H999.833L999.339 24.495Z" fill="black"/>
<path fill-rule="evenodd" clip-rule="evenodd" d="M1086.68 40.9942L1076.85 56.9175L1076.43 58.684L1076 60.4495L1085.26 77.4253L1094.52 94.4011L1114.33 94.9004L1134.15 95.3997L1134.99 94.8764L1135.83 94.3532L1142.83 82.8935L1149.83 71.4338L1152.92 66.1344L1156 60.8349L1149.78 49.6579L1143.57 38.4808L1140.27 32.3905L1136.97 26.2992L1127.82 25.6501L1118.67 25L1107.58 25.0349L1096.5 25.0699L1086.68 40.9942Z" fill="black"/>
<path fill-rule="evenodd" clip-rule="evenodd" d="M1226.14 34.147L1225.5 40.293V45.114V49.934L1214.4 50.217L1203.31 50.5L1203.15 60L1203 69.5L1214.25 69.783L1225.5 70.066V81.533V93H1235.5H1245.5V82V71L1248.25 70.946L1251 70.892L1259.5 70.696L1268 70.5L1268.28 60.9L1268.57 51.299L1260.88 50.65L1253.2 50H1249.35H1245.5V39V28H1236.14H1226.79L1226.14 34.147Z" fill="black"/>
<path fill-rule="evenodd" clip-rule="evenodd" d="M1380.71 26.457L1371.71 28.815L1356.21 32.878L1340.71 36.942L1329.26 40.303L1317.82 43.665L1317.41 44.891L1317 46.118L1321.85 59.309L1326.71 72.5L1336.71 82.575L1346.71 92.649L1352.77 94.325L1358.84 96L1362.27 95.985L1365.71 95.97L1372.09 94.467L1378.46 92.963L1382.23 89.978L1386 86.994L1388.99 82.247L1391.97 77.5L1393.82 72L1395.67 66.5L1395.69 50L1395.71 33.5L1394.9 28.75L1394.08 24L1391.9 24.049L1389.71 24.098L1380.71 26.457Z" fill="black"/>
<path fill-rule="evenodd" clip-rule="evenodd" d="M1472.31 59.021L1458 87.019L1459.31 87.426L1460.61 87.833L1477.77 88.425L1494.93 89.017L1494.45 84.758L1493.97 80.5L1492.99 73L1492.02 65.5L1490.07 49.5L1488.13 33.5L1488.12 32.25L1488.11 31L1487.36 31.011L1486.61 31.022L1472.31 59.021Z" fill="black"/>
<path fill-rule="evenodd" clip-rule="evenodd" d="M1593.55 25.5688L1592.38 26.0147L1589.09 28.2578L1585.8 30.5009L1583.22 35.7702L1580.64 41.0387L1577.67 41.7733L1574.69 42.508L1569.99 41.537L1565.29 40.5661L1562.41 41.9759L1559.53 43.3858L1557.78 46.5153L1556.03 49.6448L1556.01 51.8299L1556 54.0151L1559.52 57.7807L1563.04 61.5462L1565.51 62.2519L1567.97 62.9576L1569.52 65.0325L1571.07 67.1073L1570.55 69.8535L1570.04 72.5988L1565.37 77.2555L1560.69 81.9114V84.2687V86.6252L1563.79 89.4206L1566.88 92.216L1570.19 93.9013L1573.49 95.5865L1577.29 95.2211L1581.09 94.8558L1583.09 92.9835L1585.1 91.1105L1587.11 87.5899L1589.12 84.0692L1590.62 82.3886L1592.11 80.7073L1595.49 80.2011L1598.87 79.6949L1603.42 81.2949L1607.97 82.8956H1610.98H1613.98L1617.47 82.0178L1620.96 81.14L1622.9 78.8281L1624.85 76.5169V74.3036V72.0903L1622.11 68.8129L1619.37 65.5355L1619.4 63.0664L1619.42 60.598L1620.44 59.2625L1621.45 57.9262L1627.22 54.9594L1632.98 51.9919L1634.49 49.9123L1636 47.8328L1635.45 43.4085L1634.89 38.9834L1632.41 37.4249L1629.93 35.8664L1625.86 36.1668L1621.79 36.4672L1616.51 39.1445L1611.23 41.821L1610.02 41.5464L1608.81 41.2718L1606.75 38.9669L1604.69 36.6613L1603.42 32.118L1602.14 27.574L1600.72 26.287L1599.3 25L1597.01 25.0618L1594.73 25.1236L1593.55 25.5688Z" fill="black"/>
<rect x="0.5" y="0.5" width="1655" height="244" rx="4.5" stroke="#9747FF" stroke-dasharray="10 5"/>
</svg>
