<svg width="1200" height="240" viewBox="0 0 1200 240" fill="none" xmlns="http://www.w3.org/2000/svg">
<g clip-path="url(#clip0_2542_7320)">
<path fill-rule="evenodd" clip-rule="evenodd" d="M281.5 20C281.5 20 284.57 194.18 284.57 195.315C284.57 196.45 286.904 197.37 286.904 197.37C286.904 197.37 289.238 196.45 289.238 195.315C289.238 194.18 286.904 117.729 286.904 117.729L289.238 43.6853C289.238 30.6043 301.284 20 316.143 20C331.001 20 341 30.6043 341 43.6853L343.047 119.5C343.047 119.5 343.047 194.18 343.047 195.315C343.047 196.45 346 198.229 346 198.229L347.715 195.315V43.6853C347.715 30.6043 359.76 20 374.619 20C389.478 20 401.523 30.6043 401.523 43.6853V195.315C401.523 196.45 403.857 197.37 403.857 197.37C403.857 197.37 406.192 196.45 406.192 195.315L408 43.6853C408 30.6043 418.237 20 433.096 20C447.955 20 460 30.6043 460 43.6853V219H437.5L435.43 43.6853C435.43 42.5504 433.096 41.6304 433.096 41.6304C433.096 41.6304 430.762 42.5504 430.762 43.6853L429 119.729L430.762 195.315C430.762 208.396 418.716 219 403.857 219C388.999 219 379.5 208.396 379.5 195.315V41.6304C379.5 40.4955 375.908 41.6304 374.619 41.6304C373.33 41.6304 370 42.5504 370 43.6853L372.285 195.315C372.285 208.396 360.24 219 345.381 219C330.522 219 321 208.396 321 195.315V119.729L318.477 43.6853C318.477 42.5504 316.143 41.6304 316.143 41.6304C316.143 41.6304 313.808 42.5504 313.808 43.6853L311.5 195.315C311.5 208.396 301.763 219 286.904 219C272.045 219 260 208.396 260 195.315V20H281.5Z" fill="#16244B"/>
</g>
<path fill-rule="evenodd" clip-rule="evenodd" d="M608 33.7295H593V84.7295H608V33.7295ZM645 42.7295L638.877 38.0831L611.341 85.7762L624.231 93.2183L637 69.7295L651.767 45.5252L645 42.7295ZM674.697 68.4557L682.139 81.3457L658.292 95.1135L646 101.229L634.446 108.881L627.004 95.9913L650.85 82.2235L663.5 76.2295L674.697 68.4557ZM687 127.729V112.729H635V127.729L661.003 126.9L687 127.729ZM684.555 160.662L677.113 173.552L627 144.62L634.442 131.73L647.621 138.588L659.215 146.931L684.555 160.662ZM637.205 199.244L650.095 191.802L624.231 147.004L611.341 154.446L625.165 176.284L637.205 199.244ZM609 210.532H592.669V155.461H607.553L609 210.532ZM549.573 192.761L562.463 200.203L588.896 154.42L582.523 151.19L577 146.729L549.573 192.761ZM522.491 173.518L515.049 160.628L565.776 131.341L573.218 144.231L547.514 157.088L522.491 173.518ZM511 119.729L509.69 127.553H564.761L565 113.729L509.69 112.669L511 119.729ZM520.751 82.8856L528.193 69.9956L538.04 77.4071L550.705 82.9934L573.218 95.9912L565.776 108.881L542.351 96.7714L520.751 82.8856ZM561.346 38.0832L548.456 45.5253L554.5 57.7294L563 68.7295L575.991 93.2183L581.5 88.2295L588.881 85.7763L575.991 60.7295L561.346 38.0832Z" fill="#FF7C52"/>
<g clip-path="url(#clip1_2542_7320)">
<path fill-rule="evenodd" clip-rule="evenodd" d="M961.224 207.075L840.149 86L718.925 207.224L685.851 174.149L766 97.7295L800 56.7295L840 20L880.5 58.7295L918 94.7295L994.149 174.149L961.224 207.075Z" fill="#E4F3EE"/>
<path d="M840 152L881 189.729L916.5 230.229L994.149 306.149L840 460.299L685.851 306.149L766 230.229L800.5 189.729L840 152Z" fill="#E4F3EE"/>
</g>
<g clip-path="url(#clip2_2542_7320)">
<path fill-rule="evenodd" clip-rule="evenodd" d="M1051.93 60.7295L1081.45 59.7295L1110 60.7295L1107.98 140.729L1110 220.729L1051.93 220.729L1050 140.729L1051.93 60.7295ZM980 141.729H1040L1038.5 181.229L1040 220.729H980V141.729ZM1150 101.729L1120 99.7295L1122 159.729L1120 220.729H1180V99.7295L1150 101.729Z" fill="#FFEFBB"/>
</g>
<g clip-path="url(#clip3_2542_7320)">
<path fill-rule="evenodd" clip-rule="evenodd" d="M344.347 25.7093L307.648 13.4247L264.247 13.7077L220.849 13.9836L171.437 30.6547L122.024 47.3261L84.1118 82.1159L46.1999 116.906L23.0659 165.6L-0.0723081 214.301L-2.19886 255.255L-4.32043 296.202L3.7688 336.747L11.8583 377.291L34.3026 416.758L56.7464 456.224L90.6193 478.483L47.8583 403.291L31.6796 322.202L35.9277 240.301L82.1999 142.906L158.024 73.3261L256.849 39.9836L343.648 39.4247L417.046 63.9943L452.122 89.2935L452.07 89.2212L416.558 63.6077L381.046 37.9943L344.347 25.7093ZM509.603 145.133L543.896 192.773L566.888 284.697L561.176 371.939L486.759 499.996L401.703 553.974L296.401 575.117L220.001 559.399L263.581 588.046L307.063 596.987L350.425 605.912L401.085 595.737L401.087 595.737L451.913 585.535L492.871 559.536L492.873 559.535L533.34 533.86L605.35 409.944L608.05 368.663L608.05 368.662L610.807 326.605L599.688 282.16L599.688 282.159L588.66 238.059L561.866 200.844L561.865 200.842L534.903 163.381L509.603 145.133ZM483.974 126.649L507.865 159.842L507.866 159.844L534.66 197.059L545.688 241.159L545.688 241.16L556.807 285.605L554.05 327.662L554.05 327.663L551.35 368.944L479.34 492.86L438.873 518.535L438.871 518.536L397.913 544.535L347.087 554.737L347.085 554.737L296.425 564.912L253.063 555.987L209.581 547.046L154.717 510.982L154.716 510.981L149.243 507.384L111.349 440.751L95.7308 362.471L97.7877 322.774L97.7877 322.773L99.8114 283.801L122.098 236.891L144.396 189.956L217.226 123.125L264.634 107.13L312.522 90.9732L396.051 90.4353L466.43 113.994L483.974 126.649ZM444.455 96.0931L397.648 80.4247L310.849 80.9836L212.024 114.326L136.2 183.906L89.9277 281.301L85.6796 363.202L101.858 444.291L130.874 495.314L100.249 475.188L57.3491 399.751L41.7308 321.471L43.7877 281.774L43.7877 281.773L45.8114 242.801L68.0984 195.891L90.3964 148.956L163.226 82.1249L210.634 66.13L258.522 49.9732L342.051 49.4353L412.43 72.9943L444.455 96.0931ZM238.593 165.77L253.406 161.594L268.219 157.418L285.625 157.889L303.031 158.36L320.885 164.861L338.74 171.358L352.804 183.893L366.872 196.428L375.695 211.407L384.521 226.385L386.621 255.76L388.721 285.134L380.78 303.523L372.843 321.915L357.902 337.173L342.961 352.434L325.963 359.517L308.966 366.603L282.097 367.04L255.226 367.481L239.015 359.531L222.803 351.582L211.07 340.065L199.336 328.548L190.868 314.613L182.401 300.675L179.107 279.487L175.812 258.303L180.488 238.382L185.164 218.46L197.675 201.921L210.186 185.381L224.389 175.577L238.593 165.77Z" fill="#F7C2DA"/>
</g>
<rect x="0.5" y="0.5" width="1199" height="239" rx="4.5" stroke="#9747FF" stroke-dasharray="10 5"/>
<defs>
<clipPath id="clip0_2542_7320">
<rect width="200" height="200" fill="white" transform="translate(460 20) rotate(90)"/>
</clipPath>
<clipPath id="clip1_2542_7320">
<rect width="200" height="200" fill="white" transform="translate(940 20) rotate(90)"/>
</clipPath>
<clipPath id="clip2_2542_7320">
<rect width="200" height="200" fill="white" transform="translate(980 20)"/>
</clipPath>
<clipPath id="clip3_2542_7320">
<rect width="200" height="200" fill="white" transform="translate(20 20)"/>
</clipPath>
</defs>
</svg>
